<?xml version="1.0" encoding="utf-8"?>
<!-- Generator: Adobe Illustrator 22.0.0, SVG Export Plug-In . SVG Version: 6.00 Build 0)  -->
<svg version="1.1" id="Layer_1" xmlns="http://www.w3.org/2000/svg" xmlns:xlink="http://www.w3.org/1999/xlink" x="0px" y="0px"
	 viewBox="0 0 1000 1000" style="enable-background:new 0 0 1000 1000;" xml:space="preserve">
<style type="text/css">
	.st0{fill:#242021;}
	.st1{fill:#D2E6C4;}
	.st2{fill:#AACE37;}
	.st3{fill:#6B973F;}
</style>
<path class="st0" d="M939.86,537.75c-0.56,2.38-2.5,3.16-4.05,4.28c-16.89,12.21-33.75,24.48-50.73,36.57
	c-3.9,2.78-6.77,6.08-9.01,10.34c-27.3,51.84-54.7,103.62-82.19,155.35c-0.93,1.75-0.9,5.01-3.67,4.84
	c-2.63-0.16-2.49-3.33-3.38-5.17c-4.78-9.94-9.58-19.89-13.85-30.06c-2.26-5.37-3.74-6.16-8.16-1.55
	c-49.05,51.19-98.29,102.19-147.5,153.23c-38.48,39.91-77.04,79.74-115.41,119.76c-3.11,3.25-4.48,3.6-7.78,0.15
	c-84.68-88.39-169.5-176.65-254.28-264.94c-5.71-5.94-5.67-5.98-9.44,1.67c-3.25,6.59-6.49,13.19-9.76,19.77
	c-0.72,1.46-0.75,3.73-2.91,3.77c-2.1,0.04-2.35-2.27-3.17-3.63c-19.19-31.66-38.32-63.37-57.45-95.07
	c-11.4-18.89-22.87-37.74-34.14-56.71c-2.12-3.57-5.16-5.81-8.44-7.97c-16.57-10.95-33.05-22.04-49.77-32.76
	c-4.09-2.62-5.01-4.38-2.49-9.07c52.5-97.86,104.78-195.83,157.15-293.75c1.78-3.33,2.65-6.66,2.85-10.45
	c3.77-73.01,7.65-146.01,11.56-219.01c0.14-2.59-1.61-7.57,4.62-4.04c35.62,20.18,71.29,40.26,107.05,60.19
	c4.57,2.55,7.37,5.74,9.22,10.68c10.13,27.08,20.68,54,30.82,81.07c1.94,5.17,3.56,7.16,9.85,5.16
	c31.75-10.13,63.74-19.52,95.59-29.36c4.65-1.44,8.79-1.56,13.48,0c33.5,11.11,67.12,21.84,100.59,33.04
	c5.31,1.78,7.12,0.74,8.79-4.49c9.24-28.95,18.93-57.76,28.27-86.68c1.32-4.09,3.41-6.47,7.41-8.25
	c39.17-17.48,78.32-35.02,117.27-52.99c6.59-3.04,7.55-1.46,8.07,4.86c6.21,76.04,12.65,152.06,18.94,228.09
	c0.33,4.01,1.42,7.61,3.27,11.13c46.64,88.76,93.25,177.53,139.85,266.3C937.93,533.99,938.93,535.94,939.86,537.75z M589.69,601.21
	c1,1.99,1.38,2.39,1.37,2.77c-1.22,28.42-2.52,56.84-3.67,85.27c-0.13,3.23-2.12,4.75-4.28,6.37
	c-13.53,10.17-27.1,20.28-40.56,30.53c-3.05,2.32-6.32,3.37-10.08,3.91c-29.62,4.19-59.21,8.62-88.83,12.75
	c-5.45,0.76-6.17,1.81-2.61,6.4c31.25,40.32,62.36,80.75,93.32,121.29c3.18,4.17,4.88,4.75,8.65,0.57
	c15.44-17.12,31.24-33.91,46.88-50.84c55.73-60.36,111.5-120.68,167.08-181.18c4.3-4.68,5.91-3.69,8.62,1.17
	c5.38,9.63,11.28,18.97,17.01,28.4c0.84,1.38,1.18,3.67,3.3,3.46c2.27-0.22,1.76-2.63,2.23-4.12
	c12.21-38.31,24.48-76.61,36.42-115.01c1.62-5.2,4.42-8.18,9.14-10.51c14.95-7.39,29.61-15.34,44.6-22.65
	c4.77-2.32,4.97-4.46,2.9-8.97c-40.41-87.75-80.64-175.58-120.96-263.38c-1.55-3.37-2.82-6.77-3.54-10.41
	c-10-51.01-20.01-102.03-30.05-153.03c-0.32-1.63-0.63-4.03-1.71-4.6c-2.19-1.15-3.29,1.45-4.56,2.75
	c-28.19,28.69-56.28,57.48-84.56,86.09c-3.16,3.2-3.39,5.47-1.23,9.44c25.41,46.63,50.57,93.4,75.93,140.06
	c1.88,3.46,2.39,6.64,1.86,10.49c-5.02,36.45-9.94,72.91-14.7,109.39c-0.54,4.17-2.01,7.25-5.14,10.06
	c-11.83,10.61-23.99,20.92-35.02,32.32c-12.27,12.7-25.61,24.23-38.01,36.76c-2.95,2.98-4.12,2.3-4.97-1.69
	c-3.09-14.63-6.19-29.28-9.85-43.77c-1.2-4.76,0.31-7.11,3.87-9.73c13.24-9.72,26.22-19.8,39.46-29.54c3.1-2.28,4.4-4.72,4.3-8.58
	c-0.26-9.56-0.39-19.14,0.01-28.69c0.24-5.9-1.91-5.77-6.46-4.2c-34.99,12.11-70.01,24.12-105.1,35.93
	c-4.7,1.58-6.41,3.44-5.87,8.83c3.91,39.29,7.24,78.64,11.16,117.93c0.62,6.21-1.39,7.99-7.03,8.85
	c-16.97,2.57-33.84,5.79-50.81,8.37c-4.79,0.73-7.99,2.81-10.79,6.59c-6.42,8.67-13.17,17.1-19.75,25.65
	c-1.12,1.45-3.59,2.61-2.29,4.85c0.97,1.67,3.15,0.74,4.78,0.75c20.36,0.04,40.72,0.02,61.08,0.02c21.47,0,21.44,0.01,28.73,20.01
	c3.99,10.96,8.1,21.88,12.93,34.91C572.23,641.61,580.71,621.99,589.69,601.21z M271.94,392.04c0.09,0,0.18,0,0.27,0
	c0-1.96,0.13-3.93-0.04-5.88c-0.17-2.02,1.55-4.86-1.1-5.84c-2.15-0.79-2.95,2.05-4.19,3.42c-24.71,27.23-49.4,54.48-74.08,81.74
	c-21.07,23.26-42.13,46.52-63.18,69.8c-1.29,1.43-3.45,2.75-3.03,4.78c0.52,2.57,3.2,1.59,4.99,1.83
	c41.51,5.69,83.04,11.29,124.54,17.06c4.61,0.64,6.61-0.2,6.88-5.39C265.85,499.73,268.93,445.89,271.94,392.04z M287.31,454.87
	c-0.18,3.72-0.35,5.12-0.3,6.52c1.24,33.8,2.67,67.6,3.62,101.41c0.18,6.5,2.07,11.66,5.81,16.83
	c26.56,36.76,52.92,73.66,79.36,110.5c0.79,1.1,1.32,2.76,3.3,2.36c1.41-1.78,0.54-3.75,0.4-5.59c-0.93-12.22-2-24.42-2.97-36.64
	c-2.57-32.25-5.13-64.49-7.65-96.74c-0.39-5.02-2.01-9.17-5.59-13.08c-13.4-14.64-26.4-29.66-39.56-44.52
	C312.08,482.77,300.4,469.62,287.31,454.87z M298.69,413.43c-0.04,0-0.07,0-0.11,0c0,7.36,0.35,14.74-0.11,22.06
	c-0.34,5.47,1.45,9.28,5.68,12.63c14.96,11.87,29.82,23.85,44.53,36.01c2.93,2.42,5.84,3.16,9.42,2.9
	c13.42-0.98,26.84-2.01,40.28-2.65c4.34-0.21,6.79-1.91,8.22-5.85c5.36-14.73,10.75-29.45,16.28-44.11c1.49-3.94,0.82-5.84-3.64-6.5
	c-7.49-1.12-14.91-2.71-22.37-4.06c-18.25-3.29-36.53-5.86-52.59-16.77c-12.12-8.23-25.38-14.79-38.19-21.99
	c-6.85-3.85-7.33-3.55-7.4,4.05C298.64,397.24,298.69,405.34,298.69,413.43z M287.84,154.62c0.42-0.19,0.84-0.38,1.26-0.57
	c1.72,2.29,3.5,4.53,5.16,6.86c5.96,8.38,11.89,16.78,17.8,25.2c1.8,2.56,3.42,4.77,7.06,2.32c6.91-4.65,13.97-9.06,21.01-13.5
	c3.06-1.93,2.9-3.83,0.81-6.58c-23.36-30.82-46.62-61.72-69.91-92.6c-0.97-1.29-1.49-3.6-3.61-2.99c-2.17,0.62-1.22,2.91-1.4,4.47
	c-2.87,25.01-5.77,50.02-8.5,75.04c-2.17,19.93-4.14,39.88-6.12,59.83c-0.16,1.63-0.32,4.06,0.6,4.84c1.97,1.67,3.52-0.79,4.95-1.83
	c10.89-7.92,21.51-16.22,32.59-23.86c4.45-3.07,5.33-6.3,4.1-11.17C291.5,171.66,289.75,163.12,287.84,154.62z M645.27,348.54
	c-2.09-1.81-2.55-2.45-3.17-2.71c-19.08-7.72-38.23-15.28-57.24-23.19c-3.73-1.55-6.02,0-8.66,1.8
	c-14.8,10.06-29.6,20.12-44.42,30.17c-18.02,12.22-17.95,12.13-1.05,26.27c3.2,2.68,5.33,2.79,8.88,0.51
	c12.92-8.28,26.24-15.94,39.16-24.21c5.61-3.6,11.49-4.97,17.99-5.33C612.35,350.97,627.9,349.75,645.27,348.54z M311.17,348.63
	c8.16,0.58,15.97,1.61,23.78,1.58c22.08-0.08,42.74,3.94,60.24,18.59c2.23,1.87,4.99,3.11,7.53,4.58c5.91,3.41,11.97,9.68,17.71,9.4
	c6.29-0.31,10.41-8.86,16.1-13.06c3.32-2.45,3.39-4.05-0.19-6.44c-19.58-13.07-39.09-26.24-58.48-39.57
	c-3.11-2.14-5.53-1.83-8.76-0.5c-18.13,7.48-36.36,14.69-54.54,22.06C313.33,345.76,311.52,345.69,311.17,348.63z M359.71,357.86
	c-0.97-0.07-1.95-0.13-2.92-0.2c-7.57-0.55-7.93-0.14-5.42,6.83c2.7,7.51,7.06,13.92,13.38,18.84c9.34,7.27,22.11,5.21,28.93-4.53
	c1.11-1.59,3-3.57,0.45-4.89C382.88,368.1,373.99,357.16,359.71,357.86z M598.34,357.84c-14.25-0.59-23.39,9.98-34.64,15.92
	c-1.52,0.8-1.56,2.39-0.55,3.8c2.36,3.3,4.32,6.7,8.77,8.16c14.78,4.86,29.69-3.14,33.83-19.28
	C608.65,355.13,608.41,357.33,598.34,357.84z"/>
<path class="st1" d="M850.77,808.11c-2.63-3.54-3.85-7.54-3.89-11.93C849.89,799.6,851.47,803.48,850.77,808.11z"/>
<path class="st1" d="M589.69,601.21c-8.98,20.78-17.46,40.4-26.8,62c-4.83-13.02-8.94-23.94-12.93-34.91
	c-7.28-20-7.25-20.01-28.73-20.01c-20.36,0-40.72,0.02-61.08-0.02c-1.63,0-3.81,0.93-4.78-0.75c-1.3-2.24,1.16-3.39,2.29-4.85
	c6.58-8.55,13.33-16.98,19.75-25.65c2.8-3.78,6-5.86,10.79-6.59c16.97-2.58,33.84-5.8,50.81-8.37c5.65-0.85,7.65-2.64,7.03-8.85
	c-3.92-39.29-7.25-78.64-11.16-117.93c-0.54-5.39,1.17-7.24,5.87-8.83c35.09-11.82,70.11-23.82,105.1-35.93
	c4.55-1.57,6.7-1.71,6.46,4.2c-0.39,9.55-0.26,19.13-0.01,28.69c0.1,3.86-1.2,6.3-4.3,8.58c-13.23,9.74-26.22,19.82-39.46,29.54
	c-3.56,2.62-5.07,4.96-3.87,9.73c3.65,14.5,6.76,29.14,9.85,43.77c0.84,3.98,2.02,4.67,4.97,1.69
	c12.39-12.54,25.73-24.07,38.01-36.76c11.02-11.4,23.19-21.71,35.02-32.32c3.13-2.81,4.59-5.89,5.14-10.06
	c4.76-36.48,9.68-72.94,14.7-109.39c0.53-3.84,0.02-7.03-1.86-10.49c-25.36-46.66-50.51-93.43-75.93-140.06
	c-2.16-3.97-1.93-6.23,1.23-9.44c28.28-28.61,56.37-57.39,84.56-86.09c1.27-1.3,2.37-3.9,4.56-2.75c1.08,0.57,1.39,2.96,1.71,4.6
	c10.05,51.01,20.05,102.02,30.05,153.03c0.71,3.64,1.99,7.04,3.54,10.41c40.32,87.79,80.55,175.62,120.96,263.38
	c2.07,4.5,1.87,6.65-2.9,8.97c-14.99,7.3-29.65,15.26-44.6,22.65c-4.72,2.33-7.52,5.31-9.14,10.51
	c-11.94,38.4-24.21,76.69-36.42,115.01c-0.48,1.49,0.04,3.9-2.23,4.12c-2.12,0.21-2.46-2.08-3.3-3.46
	c-5.74-9.43-11.64-18.76-17.01-28.4c-2.71-4.86-4.33-5.84-8.62-1.17c-55.58,60.5-111.35,120.82-167.08,181.18
	c-15.64,16.94-31.44,33.72-46.88,50.84c-3.77,4.18-5.47,3.6-8.65-0.57c-30.96-40.54-62.07-80.97-93.32-121.29
	c-3.56-4.59-2.84-5.65,2.61-6.4c29.63-4.13,59.21-8.56,88.83-12.75c3.76-0.53,7.03-1.58,10.08-3.91
	c13.46-10.25,27.03-20.36,40.56-30.53c2.16-1.62,4.15-3.13,4.28-6.37c1.15-28.43,2.45-56.85,3.67-85.27
	C591.08,603.6,590.69,603.19,589.69,601.21z M731.88,230.17c-0.72-8.91-1.09-16.16-1.95-23.35c-0.56-4.66,1.32-11.55-2.6-13.3
	c-2.89-1.29-6.66,5.37-10.38,8.07c-1.31,0.95-2,3.24-4.07,2.54c-2.07-0.7-1.38-2.9-1.61-4.46c-2.24-15.24-4.38-30.5-6.59-45.75
	c-0.2-1.36,0.43-3.16-1.29-3.88c-1.45-0.6-2.07,0.73-2.77,1.72c-8.19,11.58-16.32,23.19-24.62,34.69c-1.98,2.75-1.19,4.1,1.31,5.83
	C695.02,204.48,712.64,216.79,731.88,230.17z"/>
<path class="st2" d="M271.94,392.04c-3.01,53.84-6.08,107.68-8.94,161.53c-0.27,5.19-2.28,6.03-6.88,5.39
	c-41.5-5.77-83.02-11.37-124.54-17.06c-1.79-0.25-4.47,0.74-4.99-1.83c-0.41-2.03,1.74-3.35,3.03-4.78
	c21.05-23.28,42.11-46.54,63.18-69.8c24.69-27.25,49.37-54.51,74.08-81.74c1.24-1.37,2.04-4.22,4.19-3.42
	c2.65,0.98,0.92,3.82,1.1,5.84c0.17,1.95,0.04,3.92,0.04,5.88C272.12,392.04,272.03,392.04,271.94,392.04z"/>
<path class="st2" d="M287.31,454.87c13.09,14.75,24.77,27.9,36.43,41.06c13.16,14.86,26.15,29.88,39.56,44.52
	c3.58,3.91,5.2,8.06,5.59,13.08c2.53,32.25,5.08,64.49,7.65,96.74c0.97,12.21,2.04,24.42,2.97,36.64c0.14,1.84,1.01,3.81-0.4,5.59
	c-1.99,0.4-2.52-1.26-3.3-2.36c-26.45-36.84-52.8-73.74-79.36-110.5c-3.74-5.17-5.63-10.34-5.81-16.83
	c-0.95-33.81-2.38-67.61-3.62-101.41C286.96,459.99,287.14,458.59,287.31,454.87z"/>
<path class="st3" d="M298.69,413.43c0-8.09-0.05-16.19,0.02-24.28c0.07-7.6,0.54-7.9,7.4-4.05c12.81,7.2,26.07,13.75,38.19,21.99
	c16.06,10.91,34.34,13.48,52.59,16.77c7.46,1.35,14.88,2.94,22.37,4.06c4.46,0.66,5.13,2.56,3.64,6.5
	c-5.54,14.66-10.92,29.38-16.28,44.11c-1.43,3.94-3.88,5.64-8.22,5.85c-13.44,0.64-26.86,1.67-40.28,2.65
	c-3.58,0.26-6.49-0.47-9.42-2.9c-14.72-12.16-29.58-24.15-44.53-36.01c-4.23-3.35-6.02-7.16-5.68-12.63
	c0.46-7.33,0.11-14.71,0.11-22.06C298.62,413.43,298.66,413.43,298.69,413.43z"/>
<path class="st3" d="M287.84,154.62c1.91,8.5,3.66,17.03,5.79,25.47c1.23,4.86,0.35,8.09-4.1,11.17
	c-11.08,7.64-21.7,15.94-32.59,23.86c-1.43,1.04-2.98,3.5-4.95,1.83c-0.92-0.78-0.76-3.21-0.6-4.84c1.98-19.95,3.95-39.9,6.12-59.83
	c2.73-25.03,5.62-50.03,8.5-75.04c0.18-1.56-0.77-3.85,1.4-4.47c2.12-0.61,2.64,1.7,3.61,2.99c23.29,30.87,46.55,61.77,69.91,92.6
	c2.08,2.75,2.25,4.65-0.81,6.58c-7.04,4.44-14.11,8.85-21.01,13.5c-3.64,2.45-5.26,0.24-7.06-2.32c-5.91-8.42-11.84-16.81-17.8-25.2
	c-1.66-2.33-3.43-4.58-5.16-6.86C288.68,154.24,288.26,154.43,287.84,154.62z"/>
<path class="st2" d="M645.27,348.54c-17.37,1.21-32.93,2.43-48.51,3.31c-6.5,0.36-12.38,1.74-17.99,5.33
	c-12.92,8.27-26.25,15.93-39.16,24.21c-3.55,2.28-5.68,2.17-8.88-0.51c-16.89-14.15-16.96-14.05,1.05-26.27
	c14.81-10.05,29.61-20.11,44.42-30.17c2.64-1.8,4.93-3.35,8.66-1.8c19,7.91,38.15,15.47,57.24,23.19
	C642.72,346.08,643.18,346.73,645.27,348.54z"/>
<path class="st2" d="M311.17,348.63c0.35-2.94,2.16-2.87,3.39-3.36c18.17-7.36,36.41-14.58,54.54-22.06
	c3.23-1.33,5.65-1.64,8.76,0.5c19.4,13.33,38.91,26.5,58.48,39.57c3.58,2.39,3.51,3.99,0.19,6.44c-5.69,4.2-9.81,12.75-16.1,13.06
	c-5.74,0.28-11.81-5.99-17.71-9.4c-2.55-1.47-5.31-2.71-7.53-4.58c-17.5-14.65-38.16-18.67-60.24-18.59
	C327.14,350.24,319.33,349.2,311.17,348.63z"/>
<path class="st1" d="M359.71,357.86c14.28-0.71,23.17,10.24,34.41,16.06c2.55,1.32,0.66,3.3-0.45,4.89
	c-6.81,9.73-19.59,11.8-28.93,4.53c-6.31-4.92-10.67-11.33-13.38-18.84c-2.51-6.96-2.15-7.37,5.42-6.83
	C357.76,357.73,358.74,357.79,359.71,357.86z"/>
<path class="st1" d="M598.33,357.83c10.07-0.51,10.31-2.71,7.4,8.61c-4.14,16.14-19.05,24.14-33.83,19.28
	c-4.45-1.46-6.4-4.86-8.77-8.16c-1.01-1.41-0.96-3,0.55-3.8C574.95,367.82,584.08,357.24,598.33,357.83z"/>
<path class="st0" d="M731.88,230.17c-19.23-13.38-36.86-25.69-54.57-37.88c-2.5-1.72-3.3-3.08-1.31-5.83
	c8.3-11.5,16.44-23.11,24.62-34.69c0.7-0.99,1.32-2.32,2.77-1.72c1.72,0.71,1.09,2.52,1.29,3.88c2.21,15.25,4.35,30.5,6.59,45.75
	c0.23,1.56-0.46,3.76,1.61,4.46c2.07,0.7,2.76-1.59,4.07-2.54c3.72-2.7,7.49-9.36,10.38-8.07c3.92,1.74,2.05,8.63,2.6,13.3
	C730.79,214.01,731.16,221.26,731.88,230.17z"/>
</svg>
